<svg height="424pt" viewBox="-5 0 424 424.265" width="424pt" xmlns="http://www.w3.org/2000/svg" xmlns:xlink="http://www.w3.org/1999/xlink"><linearGradient id="a"><stop offset="0" stop-color="#00efd1"/><stop offset="1" stop-color="#00acea"/></linearGradient><linearGradient id="b" gradientUnits="userSpaceOnUse" x1="207.899182" x2="207.899182" xlink:href="#a" y1="4.133" y2="432.922"/><linearGradient id="c" gradientUnits="userSpaceOnUse" x1="291.396182" x2="291.396182" xlink:href="#a" y1="4.133" y2="432.922"/><path d="m295.695312 0c-57.777343.078125-107.328124 41.253906-117.976562 98.039062-18.269531 4.308594-35.777344 8.699219-43.964844 10.816407-6.40625-3.0625-12.5625-6.628907-18.402344-10.664063-7.734374-5.113281-14.410156-9.523437-22.609374-10.167968-25.464844-2.011719-50.503907 7.421874-68.308594 25.734374-17.808594 18.316407-26.535156 43.609376-23.8125 69.007813 5.078125 46.214844 22.402344 138.074219 81.324218 234.019531 3.144532 5.121094 9.046876 7.867188 14.988282 6.976563s10.773437-5.246094 12.277344-11.066407l6.136718-23.773437c6.257813-24.191406 18.628906-46.367187 35.925782-64.394531l2.046874-2.132813c2.277344-2.363281 6.03125-2.441406 8.402344-.179687l2.476563 2.371094c18.921875 18.105468 32.601562 40.980468 39.601562 66.214843l6.238281 22.492188c1.800782 6.484375 7.703126 10.96875 14.433594 10.972656 5.203125 0 10.03125-2.703125 12.753906-7.132813 33.628907-54.945312 57.976563-115.050781 72.070313-177.910156 63.207031-7.222656 109.792969-62.519531 106.179687-126.035156-3.609374-63.515625-56.160156-113.1757812-119.78125-113.1875zm-119.886718 114.933594c-.042969 1.050781-.074219 2.105468-.089844 3.164062-3.550781-.121094-6.917969-.359375-10.097656-.707031 3.292968-.800781 6.707031-1.625 10.1875-2.457031zm49.015625 291.808594-5.605469-20.21875c-7.773438-28.011719-22.960938-53.402344-43.960938-73.5l-2.480468-2.371094c-8.753906-8.347656-22.605469-8.054688-31 .65625l-2.050782 2.132812c-19.199218 20.015625-32.929687 44.628906-39.875 71.480469l-5.53125 21.433594c-56.289062-92.539063-72.902343-180.785157-77.800781-225.339844-2.203125-20.660156 4.902344-41.226563 19.390625-56.121094 14.492188-14.890625 34.855469-22.558593 55.570313-20.921875 4.078125.320313 8.917969 3.515625 15.042969 7.566406 13.210937 8.726563 32.757812 21.625 70.003906 22.597657 7.105468 59.222656 56.570312 104.269531 116.195312 105.824219-13.667968 58.835937-36.582031 115.132812-67.898437 166.785156zm70.871093-182.742188c-54.527343-.066406-99.773437-42.191406-103.730468-96.574219.074218-.460937.105468-.929687.097656-1.394531-.011719-.65625-.109375-1.308594-.28125-1.941406-.054688-1.359375-.089844-2.71875-.089844-4.089844 0-57.4375 46.5625-104 104-104s104 46.5625 104 104-46.5625 104-104 104zm0 0" fill="url(#b)"/><path d="m346.894531 101.132812h-32v-33c0-4.417968-3.578125-8-8-8h-30c-4.417969 0-8 3.582032-8 8v33h-33c-4.417969 0-8 3.582032-8 8v30c0 4.417969 3.582031 8 8 8h33v32c0 4.417969 3.582031 8 8 8h30c4.421875 0 8-3.582031 8-8v-32h32c4.421875 0 8-3.582031 8-8v-30c0-4.417968-3.578125-8-8-8zm-8 30h-32c-4.417969 0-8 3.582032-8 8v32h-14v-32c0-4.417968-3.578125-8-8-8h-33v-14h33c4.421875 0 8-3.582031 8-8v-33h14v33c0 4.417969 3.582031 8 8 8h32zm0 0" fill="url(#c)"/></svg>